<?xml version="1.0" standalone="no"?><!DOCTYPE svg PUBLIC "-//W3C//DTD SVG 1.1//EN" "http://www.w3.org/Graphics/SVG/1.1/DTD/svg11.dtd"><svg t="1491990429084" class="icon" style="" viewBox="0 0 1024 1024" version="1.1" xmlns="http://www.w3.org/2000/svg" p-id="1147" xmlns:xlink="http://www.w3.org/1999/xlink" width="200" height="200"><defs><style type="text/css"></style></defs><path d="M659.59 833.611s-65.601-83.424-97.928-176.916c-32.325-93.494-47.909-214.484-47.909-214.484L398.21 452.63l-5.581-51.431 113.061-8.924c-0.504-6.937-0.805-11.904-0.928-14.883-0.133-2.968-0.695-10.971-1.678-23.985-0.994-13.015-1.857-29.563-2.606-49.647l-2.229-56.527-3.351-65.825c10.419 0.494 18.229-0.245 23.43 0h58.768l26.934-0.655c-5.69 30.348-6.051 43.146-6.169 62.12-0.472 78.245 8.987 140.843 8.987 140.843l232.799-19.333 3.351 50.687-228.832 18.961c0.751 5.951 16.89 140.551 65.576 225.264 14.864 26.529 29.791 43.252 46.484 61.361 72.409 78.557 175.935 133.461 250.839 165.965a162.414 162.414 0 0 0 11.77-60.811V198.197c0-90.037-72.986-163.03-163.023-163.03H198.197c-90.043 0-163.029 72.993-163.029 163.03v627.614c0 90.037 72.986 163.023 163.029 163.023H825.81c5.178 0 10.292-0.27 15.342-0.742C723.297 926.654 659.59 833.611 659.59 833.611z m4.529-608.69l24.174-15.621 15.615-10.042c21.818 27.024 37.807 47.297 47.975 60.806 10.164 13.516 21.695 30.303 34.588 50.387-6.453 4.223-17.611 11.104-33.471 20.639-15.871 9.553-33.348 20.896-52.438 34.032-6.195-8.181-10.657-14.505-13.388-18.966l-24.173-36.816c-11.903-17.599-26.407-37.188-43.514-58.761 29.011-16.605 43.881-25.163 44.632-25.658zM263.584 854.912l2.6-71.025V509.419c-11.159 17.36-17.85 27.397-20.083 30.131l-26.775 33.463c-14.628-25.527-25.84-44.5-33.655-56.896-7.805-12.394-19.148-27.021-34.031-43.886 14.373-15.115 27.896-30.126 40.54-45.001 12.643-14.872 28.382-37.617 47.231-68.242 18.838-30.62 34.826-58.573 47.969-83.857 13.146-25.296 28.886-59.884 47.236-103.764 23.055 13.882 39.61 23.24 49.652 28.075 10.041 4.834 26.957 11.848 50.758 21.017-16.359 31.242-38.182 74.51-65.447 129.792v433.635l1.856 71.025H263.584z" fill="#FF7300" p-id="1148"></path></svg>