<?xml version="1.0" standalone="no"?><!DOCTYPE svg PUBLIC "-//W3C//DTD SVG 1.1//EN" "http://www.w3.org/Graphics/SVG/1.1/DTD/svg11.dtd"><svg t="1489835645099" class="icon" style="" viewBox="0 0 1024 1024" version="1.1" xmlns="http://www.w3.org/2000/svg" p-id="10076" xmlns:xlink="http://www.w3.org/1999/xlink" width="48" height="48"><defs><style type="text/css"></style></defs><path d="M588.88253 613.356432l0-0.079818-47.684022 0 0-23.754007 47.684022 0 0-0.046049c12.971429-0.066515 23.462365-10.708899 23.462365-23.816428 0-13.124925-10.490935-23.7581-23.462365-23.844058l0-0.059352-47.593971 0c0.106424-0.529049-0.062422-1.00591 0-1.543146l55.766095-57.579393c9.103332-10.347672 4.466732-18.901489-4.726651-28.288277-9.255805-9.437953-24.369014-11.414981-31.848359-3.190669l-47.955198 51.626821-51.789527-52.317553c-6.562463-6.616698-19.327184-4.455475-28.492938 4.809539-9.196453 9.287527-11.301394 22.168905-4.771677 28.78458l52.981678 53.491285c-0.994654 1.280156-1.626034 2.697435-2.018983 4.205788l-43.046399 0 0 0.048095-0.12075 0c-13.047154 0-23.613814 10.670014-23.613814 23.847128 0 13.160741 10.56666 23.849174 23.613814 23.849174 0.029676 0 0.075725-0.021489 0.12075-0.021489l0 0.046049 47.202045 0 0 23.750937-47.202045 0 0 0.064468-0.12075 0c-13.047154 0-23.613814 10.673084-23.613814 23.851221 0 13.162788 10.56666 23.848151 23.613814 23.848151 0.029676 0 0.075725-0.029676 0.12075-0.029676l0 0.029676 47.202045 0 0 24.006763 0.483001 0c-0.36225 1.859347-0.588401 3.808746-0.588401 5.79396 0 16.46602 13.217023 29.80891 29.516244 29.80891 16.299221 0 29.516244-13.34289 29.516244-29.80891 0-1.985214-0.226151-3.934612-0.587378-5.79396l0.272199 0 0-24.006763 47.684022-0.029676c12.971429-0.074701 23.477714-10.707876 23.477714-23.817452C612.360244 624.075565 601.852936 613.440343 588.88253 613.356432z" p-id="10077" fill="#519DE5"></path><path d="M901.723607 64.303538 122.274346 64.303538c-32.04074 0-58.014298 25.973558-58.014298 58.014298l0 779.364327c0 32.041764 25.973558 58.014298 58.014298 58.014298l779.449261 0c32.04074 0 58.014298-25.973558 58.014298-58.014298L959.737906 122.317837C959.738929 90.277096 933.764348 64.303538 901.723607 64.303538zM399.29459 209.096249l0.542352-1.12973c0 0 58.036811-11.724019 106.264209-11.919471 50.450019-0.210801 106.243743 11.919471 106.243743 11.919471l0.574075 1.14201c6.577812 2.63399 11.272741 9.031701 11.272741 16.603143 0 1.557472-0.5137 2.943029-0.873903 4.378727l0.843204 1.723248-4.967128 6.264681c-0.119727 0.12075-0.180102 0.252757-0.301875 0.37453l-41.963741 52.971445L435.26585 291.424302l-41.886993-52.881394c-0.316202-0.301875-0.527003-0.669242-0.798179-1.001817l-4.544503-5.727445 0.799202-1.614777c-0.376577-1.467421-0.88823-2.898003-0.88823-4.487198C387.946125 218.117716 392.671753 211.706703 399.29459 209.096249zM511.998465 827.956022c-195.455577 0-277.423427-70.605058-277.423427-215.705783 0-120.208802 92.957135-245.650793 205.644637-285.219997l143.546324 0c112.701828 39.569204 205.658963 165.011194 205.658963 285.219997C789.421892 757.350964 707.454042 827.956022 511.998465 827.956022z" p-id="10078" fill="#519DE5"></path></svg>