<?xml version="1.0" encoding="utf-8"?>
<!-- Generator: Adobe Illustrator 16.0.0, SVG Export Plug-In . SVG Version: 6.00 Build 0)  -->
<!DOCTYPE svg PUBLIC "-//W3C//DTD SVG 1.1//EN" "http://www.w3.org/Graphics/SVG/1.1/DTD/svg11.dtd">
<svg version="1.1" id="图层_1" xmlns="http://www.w3.org/2000/svg" xmlns:xlink="http://www.w3.org/1999/xlink" x="0px" y="0px"
	 width="611.32px" height="197.2px" viewBox="0 0 611.32 197.2" enable-background="new 0 0 611.32 197.2" xml:space="preserve">
<polygon fill="#FFFFFF" points="250.239,53.1 290.7,53.1 296.14,68.4 316.881,68.4 316.881,62.28 310.76,62.28 305.659,46.98 
	235.62,46.98 230.18,62.28 224.399,62.28 224.399,68.4 244.8,68.4 "/>
<polygon fill="#FFFFFF" points="519.18,105.46 530.061,105.46 530.061,53.1 551.48,53.1 551.48,105.46 562.359,105.46 
	562.359,46.98 519.18,46.98 "/>
<polygon fill="#FFFFFF" points="580.721,50.04 580.721,46.98 566.779,46.98 566.779,56.16 599.08,56.16 599.08,123.82 
	571.539,123.82 571.539,129.94 611.66,129.94 611.66,50.04 "/>
<polygon fill="#FFFFFF" points="546.721,104.439 546.721,59.22 534.82,59.22 534.82,104.439 522.92,123.82 513.4,123.82 
	513.4,87.78 436.561,87.78 436.561,85.74 421.26,85.74 421.26,93.9 498.779,93.9 498.779,123.82 482.801,123.82 482.801,129.94 
	500.48,129.94 513.4,129.94 531.76,129.94 540.6,114.98 550.119,129.94 562.359,129.94 562.359,123.82 558.619,123.82 "/>
<polygon fill="#FFFFFF" points="593.641,77.58 584.461,77.58 584.461,111.58 577.66,111.58 583.779,62.28 571.539,62.28 
	565.42,111.58 565.42,117.7 593.641,117.7 "/>
<polygon fill="#FFFFFF" points="460.699,123.82 452.539,123.82 452.539,129.94 474.98,129.94 481.1,99 465.801,99 "/>
<path fill="#FFFFFF" d="M428.061,123.82h-7.48H391l-4.42-26.18h28.561v-6.12h-29.58l-2.721-15.3h31.961V46.98H322.66v76.84h-43.181
	v-18.36h35.7v-6.12h-35.7V80.98h35.7v-6.12H226.1v6.12h38.76v18.36H226.1v6.12h38.76v18.36H226.1v6.12h96.561h24.141h15.979v-6.12
	h-15.979h-9.182V97.64h34.342l5.439,32.3h43.52h7.82h13.939L448.801,99H433.5L428.061,123.82z M337.279,91.52v-15.3h30.941
	l2.719,15.3H337.279z M337.279,70.1v-17h62.9v17H337.279z"/>
<polygon fill="#FFFFFF" points="513.4,46.98 421.26,46.98 421.26,52.42 498.779,52.42 498.779,53.1 498.779,55.14 498.779,60.92 
	498.779,67.04 498.779,74.52 491.301,74.52 435.881,74.52 435.881,67.04 491.301,67.04 491.301,60.92 435.881,60.92 421.26,60.92 
	421.26,80.64 513.4,80.64 "/>
<path fill="#FFFFFF" d="M239.359,170.4h-12.92v-27.2h25.16v27.2h-6.8l1.7,5.439h-5.44L239.359,170.4z M246.5,145.58h-14.62v22.439
	h7.14l-1.359-4.079h5.439l1.36,4.079h2.38L246.5,145.58L246.5,145.58z"/>
<path fill="#FFFFFF" d="M266.56,168.02h14.28V143.2h5.439v27.2H261.12v-27.2h5.439V168.02z"/>
<path fill="#FFFFFF" d="M317.9,143.2l4.42,27.2h-5.439l-2.041-11.9h-13.601l-1.7,11.9H294.1l4.42-27.2H317.9z M314.5,156.46
	l-1.699-10.88h-9.521l-1.7,10.88H314.5z"/>
<path fill="#FFFFFF" d="M349.859,167.68V143.2h5.102v27.2h-7.48l-12.24-24.48v24.48h-5.1v-27.2h7.82L349.859,167.68z"/>
<path fill="#FFFFFF" d="M379.1,167l6.121-23.46h8.16v27.2h-4.762v-24.82l-6.459,24.82h-6.121l-6.459-24.82v24.48h-4.76v-27.2h8.16
	L379.1,167z"/>
<path fill="#FFFFFF" d="M408.34,143.2v27.2H402.9v-27.2H408.34z"/>
<path fill="#FFFFFF" d="M437.92,167.68V143.2h5.1v27.2h-7.48l-12.238-24.48v24.48h-5.102v-27.2h7.82L437.92,167.68z"/>
<path fill="#FFFFFF" d="M107.779,188.76c-49.64,0-89.76-40.12-89.76-89.76c0-49.64,40.12-89.76,89.76-89.76
	c49.641,0,89.761,40.12,89.761,89.76c0-54.4-44.2-98.6-98.601-98.6C44.54,0.4,0.34,44.6,0.34,99c0,54.4,44.2,98.6,98.6,98.6
	c54.4,0,98.601-44.199,98.601-98.6C197.54,148.64,157.08,188.76,107.779,188.76z"/>
<path fill="#FFFFFF" d="M193.8,95.26c-1.7-7.48-2.38-14.62-4.76-21.42C174.76,31,129.88,8.22,87.04,23.86
	C57.12,34.74,40.12,57.18,35.02,88.8c-0.68,4.08,0,8.16-6.12,7.14c0,4.08,0,7.48,0,11.22c2.04,0,3.4,0.34,5.44,0.34
	c7.82,51.34,48.28,71.06,77.18,71.74c17,0.34,32.98-4.08,46.92-14.28c20.061-13.94,30.94-33.66,34.34-58.14c3.4,0,6.461,0,9.181,0
	c0-4.08,0-7.82,0-11.9C198.899,95.26,196.18,95.26,193.8,95.26z M182.92,70.44c-7.141,5.1-15.3,6.12-23.46,7.14
	c-1.36,0.34-3.061-0.68-3.4-2.04c-2.38-8.5-4.76-16.66-7.14-24.82l15.979-5.78C172.72,51.06,178.5,59.9,182.92,70.44z M153.68,95.26
	c-12.24,0-23.8,0-35.36,0c0-3.4,0-7.14,0-10.54c11.221-0.68,22.44-1.02,34-1.7C152.66,86.76,153,90.5,153.68,95.26z M161.84,41.2
	c-5.78,1.7-10.2,3.4-14.28,4.76c-5.78-7.14-10.88-13.6-15.979-20.06C142.12,28.28,151.979,33.38,161.84,41.2z M117.979,25.56
	c11.561,2.72,18.021,10.88,23.8,21.08c-8.5,0.68-15.979,1.02-23.8,1.36C117.979,40.52,117.979,33.38,117.979,25.56z M117.979,52.42
	c7.82-0.34,15.641-1.02,23.46-1.36c1.021,0,2.721,0.68,3.061,1.36c2.38,7.14,4.42,14.62,7.14,22.44c0.68,2.04-0.68,4.08-2.72,4.08
	h-26.521c-2.38,0-4.42-2.04-4.42-4.42V52.42z M108.46,78.94H80.24c-2.381,0-3.74-2.04-3.061-4.42c2.38-7.82,4.42-14.96,6.8-21.76
	c0.34-1.02,2.04-1.7,3.4-1.7c8.16,0.34,16.66,0.68,25.16,1.36V75.2C112.54,77.24,110.84,78.94,108.46,78.94z M112.54,84.72
	c0,3.4,0,6.8,0,10.88c-11.9,0-24.141,0-37.061,0c0.34-4.42,0.681-8.5,1.021-12.58C88.399,83.36,100.3,84.04,112.54,84.72z
	 M87.04,46.64c6.12-10.88,13.26-19.04,25.5-21.42c0,7.82,0,14.96,0,23.12C104.04,47.66,95.88,46.98,87.04,46.64z M97.24,25.56
	c-4.421,6.12-9.181,12.24-13.94,18.7c-0.68,0.68-2.38,1.021-3.4,1.021c-4.08-1.021-8.159-2.38-13.939-3.74
	C76.5,32.7,86.7,27.94,97.24,25.56z M71.06,95.6c-10.88,0-21.42,0-32.64,0c1.359-7.14,2.72-13.94,3.74-19.72
	c9.18,2.38,17.68,4.42,26.18,6.46c1.7,0.34,3.06,2.04,3.06,4.08C71.399,89.48,71.399,92.54,71.06,95.6z M70.04,77.58
	C61.2,76.9,52.7,75.54,43.52,70.1c6.12-12.24,11.9-20.06,18.36-26.18c6.8,2.72,12.58,4.76,17.34,6.46
	c-2.04,8.5-4.08,16.66-6.46,25.16C72.76,76.22,71.06,77.58,70.04,77.58z M141.779,150c-1.02,0-2.72-1.7-3.06-2.72
	c-2.04-6.12-3.74-12.58-5.78-19.721c-1.02,1.7-1.699,2.721-2.38,3.74c-2.38,5.44-5.1,10.88-7.479,16.32
	c-0.681,2.04-2.04,2.38-4.08,2.72c-8.16,1.7-13.26-1.359-15.98-9.52c-1.359-4.42-3.74-8.16-6.8-12.24c-1.36,5.1-2.72,10.2-4.08,15.3
	c-2.38,8.5-0.34,6.8-8.84,7.14c-3.4,0-7.14,0-10.54,0c-0.34,0-0.34,0-1.02-0.34c1.699-6.46,3.399-12.92,5.1-19.04
	c1.7-6.119,3.4-12.239,4.76-18.7c0.34-2.039,1.36-2.719,3.4-2.719c4.42,0,8.84,0,13.26-0.341c2.72,0,4.08,1.021,5.1,3.4
	c3.4,7.479,7.141,14.96,11.221,23.12c3.06-6.46,6.12-11.561,7.819-17.68c2.38-8.16,7.141-10.541,15.301-9.861
	c8.5,0.681,8.5,0,10.88,8.5c3.06,10.541,6.12,21.081,9.18,32.301C152.66,150.34,147.22,150.34,141.779,150z M157.42,95.26
	c0-4.42,0-8.16,0-11.9c9.18-2.38,18.02-4.76,27.88-7.14c1.02,5.78,2.38,12.24,4.08,19.38C178.16,95.26,167.96,95.26,157.42,95.26z"
	/>
<circle fill="#FFFFFF" stroke="#8D8D8C" stroke-miterlimit="10" cx="511.359" cy="167" r="2.38"/>
<g>
	<path fill="#FFFFFF" stroke="#8D8D8C" stroke-width="0.5" stroke-miterlimit="10" d="M561,150.68c0-1.359,0.68-2.38,1.359-3.399
		c1.021-1.021,2.041-1.36,3.4-1.36h11.561c1.359,0,2.379,0.68,3.4,1.36c1.02,1.02,1.359,2.04,1.359,3.399v12.24
		c0,1.36-0.68,2.38-1.359,3.4c-1.021,1.02-2.041,1.359-3.4,1.359H565.76c-1.359,0-2.721-0.68-3.4-1.359
		c-1.02-1.021-1.359-2.04-1.359-3.4V150.68z M564.061,149.66v14.28l0,0c0,0.34,0.34,1.02,0.68,1.02c0.34,0.34,0.68,0.68,1.359,0.68
		l0,0h11.561l0,0c0.34,0,1.02-0.34,1.359-0.68s0.68-0.68,0.68-1.02l0,0v-14.28l0,0c0-0.34-0.34-1.021-0.68-1.021
		c-0.34-0.34-0.68-0.68-1.359-0.68H566.1c-0.34,0-1.02,0.34-1.359,0.68C564.061,148.64,563.721,148.98,564.061,149.66
		L564.061,149.66z"/>
</g>
<g>
	<path fill="#FFFFFF" stroke="#8D8D8C" stroke-width="0.5" stroke-miterlimit="10" d="M609.619,165.3c1.701,0,1.701,2.04,0,2.04
		H593.98c-1.361,0-2.721-0.68-3.4-1.359c-1.02-1.021-1.359-2.04-1.359-3.4V146.6c0-1.02,0.68-1.699,1.699-1.699
		s1.699,0.68,1.699,1.699v17c0,0.341,0,1.021,0.342,1.36c0.34,0.34,0.68,0.68,1.359,0.68h9.52c0.68,0,1.02-0.34,1.02-1.02V146.6
		c0-1.02,0.68-1.699,1.701-1.699c1.02,0,1.699,0.68,1.699,1.699v17.681C608.26,164.96,608.6,165.3,609.619,165.3L609.619,165.3z"/>
</g>
<path fill="#FFFFFF" stroke="#8D8D8C" stroke-width="0.5" stroke-miterlimit="10" d="M551.82,168.02V149.66
	c0-1.36-0.68-2.72-1.359-3.4c-0.682-1.02-2.041-1.359-3.4-1.359h-12.24c-1.359,0-2.721,0.68-3.4,1.359
	c-0.68,1.021-1.359,2.04-1.359,3.4v9.52c0,1.36,0.68,2.721,1.359,3.4c1.02,1.02,2.041,1.36,3.4,1.36h12.58
	c0.68,0,1.359,0.68,1.359,1.359v4.08v-0.34c0,0.34,0,2.04-0.34,2.38s-1.02,0.68-1.699,0.68h-12.24c-1.021-0.34-1.701,1.36,0,1.36
	h12.24l0,0c1.359,0,3.059,0.34,4.08-0.68C551.82,171.76,551.82,169.38,551.82,168.02z M548.42,148.64v11.9
	c0,0.68-0.68,1.36-1.359,1.36h-12.58c-0.68,0-1.02-0.341-1.02-0.681c-0.342-0.34-0.682-0.68-0.682-1.02V148.64
	c0-0.34,0.34-1.02,0.682-1.359c0.34-0.34,0.68-0.681,1.02-0.681h12.24c0.34,0,1.02,0.341,1.359,0.681S548.76,148.3,548.42,148.64
	L548.42,148.64z"/>
<path fill="#8D8D8C" stroke="#8D8D8C" stroke-width="0.25" stroke-miterlimit="10" d="M501.16,159.18"/>
<path fill="#FFFFFF" d="M487.9,161.22l10.199-5.439c0,0,1.701-1.021,1.02-3.061c0,0-1.699-3.06-5.1-5.1
	c-3.059-1.7-7.82-0.34-7.82-0.34s-4.08,1.359-6.119,4.08c-2.041,2.72-1.359,5.779-1.359,5.779s0.34,4.761,3.398,7.82
	c3.061,3.061,7.82,2.72,7.82,2.72s6.121,0,9.18-3.739c0,0,2.041-2.381,1.701-3.74c0-1.36-1.701-1.7-1.701-1.7s-1.359,0-1.699,0.68
	c-0.34,1.021-2.721,3.74-6.119,4.761c-0.682,0.34-6.461,0.34-7.82-3.74c-1.361-4.08-0.34-5.44,0.68-6.8
	c1.02-1.021,2.379-2.04,3.4-2.38c1.02-0.341,2.379-0.681,3.4-0.341c1.02,0.681,2.379,2.04,2.379,2.04l-8.5,5.101
	c0,0-0.68,0.68-0.34,1.359c0.34,0.681,1.02,1.36,1.02,1.36S486.539,161.9,487.9,161.22L487.9,161.22z"/>
</svg>
