<?xml version="1.0" standalone="no"?><!DOCTYPE svg PUBLIC "-//W3C//DTD SVG 1.1//EN" "http://www.w3.org/Graphics/SVG/1.1/DTD/svg11.dtd"><svg t="1497061723870" class="icon" style="" viewBox="0 0 1025 1024" version="1.1" xmlns="http://www.w3.org/2000/svg" p-id="1824" xmlns:xlink="http://www.w3.org/1999/xlink" width="200.1953125" height="200"><defs><style type="text/css"></style></defs><path d="M1010.346667 935.253333l-218.453334-215.04c61.44-75.093333 95.573333-170.666667 95.573334-276.48 0-245.76-197.973333-443.733333-443.733334-443.733333S0 197.973333 0 443.733333s197.973333 443.733333 443.733333 443.733334c102.4 0 197.973333-37.546667 276.48-95.573334l218.453334 215.04c20.48 20.48 51.2 20.48 71.68 0 20.48-20.48 20.48-51.2 0-71.68zM68.266667 443.733333C68.266667 235.52 235.52 68.266667 443.733333 68.266667s375.466667 167.253333 375.466667 375.466666-167.253333 375.466667-375.466667 375.466667S68.266667 651.946667 68.266667 443.733333z" fill="#CCCCCC" p-id="1825"></path></svg>