<?xml version="1.0" standalone="no"?><!DOCTYPE svg PUBLIC "-//W3C//DTD SVG 1.1//EN" "http://www.w3.org/Graphics/SVG/1.1/DTD/svg11.dtd"><svg t="1497081122841" class="icon" style="" viewBox="0 0 1024 1024" version="1.1" xmlns="http://www.w3.org/2000/svg" p-id="2520" xmlns:xlink="http://www.w3.org/1999/xlink" width="200" height="200"><defs><style type="text/css"></style></defs><path d="M387.817037 785.078007a23.065515 23.065515 0 0 1-16.547296-6.974087 23.337674 23.337674 0 0 1 0.306179-32.910883l233.689728-230.246911-236.162977-237.074711a23.337674 23.337674 0 0 1 0-32.914285 23.119947 23.119947 0 0 1 32.788412 0l252.710272 253.686644a23.320664 23.320664 0 0 1 6.790379 16.567708 23.320664 23.320664 0 0 1-6.94687 16.499668l-250.386711 246.702352a23.065515 23.065515 0 0 1-16.241116 6.664505z" fill="#CCCCCC" p-id="2521"></path></svg>