<?xml version="1.0" encoding="utf-8"?>
<!-- Generator: Adobe Illustrator 16.0.0, SVG Export Plug-In . SVG Version: 6.00 Build 0)  -->
<!DOCTYPE svg PUBLIC "-//W3C//DTD SVG 1.1//EN" "http://www.w3.org/Graphics/SVG/1.1/DTD/svg11.dtd">
<svg version="1.1" id="图层_1" xmlns="http://www.w3.org/2000/svg" xmlns:xlink="http://www.w3.org/1999/xlink" x="0px" y="0px"
	 width="201.23px" height="196.19px" viewBox="0 0 201.23 196.19" enable-background="new 0 0 201.23 196.19" xml:space="preserve">
<path fill="#8D8D8C" d="M107.1,187.447c-49.401,0-89.545-39.943-89.545-89.344c0-49.3,40.044-89.344,89.545-89.344
	c49.4,0,89.545,39.943,89.545,89.344c0-54.129-43.968-98.097-98.298-98.097S0.048,43.974,0.048,98.103s43.968,98.096,98.298,98.096
	s98.298-43.967,98.298-98.096C196.645,147.402,156.601,187.447,107.1,187.447z"/>
<path fill="#8D8D8C" d="M193.123,94.28c-1.609-7.345-2.516-14.589-4.729-21.33c-14.389-42.76-59.16-65.096-101.619-49.803
	C56.894,33.913,39.89,56.349,34.86,87.64c-0.604,3.924,0.201,8.149-6.238,7.144c0,3.924,0,7.445,0,11.168
	c1.912,0.1,3.521,0.201,5.534,0.402c7.848,50.91,48.193,70.73,76.969,71.434c17.104,0.402,32.899-4.225,46.886-14.084
	c19.921-13.986,30.988-33.506,34.107-57.752c3.42,0,6.338,0,9.155,0c0-4.025,0-7.647,0-11.671
	C198.153,94.28,195.438,94.28,193.123,94.28z M182.156,69.529c-7.144,5.031-15.192,5.936-23.342,7.144
	c-1.51,0.201-2.918-0.705-3.32-2.213c-2.415-8.452-4.729-16.5-7.043-24.852l15.997-5.936
	C172.095,50.514,177.931,59.267,182.156,69.529z M152.979,94.481c-12.174,0-23.744,0-35.416,0c0-3.42,0-7.042,0-10.564
	c11.369-0.604,22.236-1.107,33.807-1.71C151.872,85.829,152.375,89.752,152.979,94.481z M161.229,40.653
	c-5.634,1.811-10.363,3.32-14.387,4.628c-5.635-7.043-10.867-13.583-16.099-20.123C141.609,27.674,151.369,32.705,161.229,40.653z
	 M117.463,24.958c11.57,2.616,18.01,10.665,23.744,21.128c-8.451,0.503-15.896,1.006-23.744,1.509
	C117.463,39.949,117.463,32.705,117.463,24.958z M117.361,51.721c7.949-0.503,15.695-1.006,23.443-1.308
	c1.006,0,2.816,0.704,3.119,1.408c2.414,7.144,4.527,14.388,6.941,22.336c0.604,1.912-0.805,3.924-2.918,3.924h-26.461
	c-2.313,0-4.225-1.911-4.225-4.226V51.721H117.361z M108.105,78.081H79.934c-2.213,0-3.823-2.213-3.119-4.326
	c2.415-7.747,4.528-14.79,6.842-21.732c0.302-0.905,2.113-1.71,3.22-1.71c8.25,0.302,16.5,0.805,25.153,1.308v22.638
	C111.929,76.371,110.219,78.081,108.105,78.081z M111.929,83.816c0,3.42,0,6.741,0,10.765c-11.872,0-24.046,0-36.824,0
	c0.402-4.326,0.705-8.351,1.006-12.476C87.983,82.709,99.755,83.212,111.929,83.816z M86.474,45.986
	c5.937-10.967,13.08-19.116,25.556-21.43c0,7.747,0,15.092,0,23.04C103.679,46.992,95.529,46.489,86.474,45.986z M96.736,24.958
	c-4.427,5.936-9.055,12.275-13.784,18.513c-0.604,0.704-2.314,1.106-3.32,0.905c-4.226-1.006-8.25-2.314-13.684-3.823
	C76.01,32.001,86.172,27.373,96.736,24.958z M70.678,94.783c-10.665,0-21.229,0-32.498,0c1.409-7.144,2.717-13.885,3.823-19.62
	c9.055,2.213,17.607,4.326,26.16,6.439c1.811,0.503,3.119,2.113,3.018,4.025C71.08,88.545,70.879,91.563,70.678,94.783z
	 M69.671,76.673c-8.652-0.805-17.305-2.012-26.562-7.646c6.137-12.074,11.872-19.921,18.412-26.159
	c6.942,2.616,12.375,4.628,17.406,6.54c-2.012,8.351-4.024,16.702-6.338,25.053C72.489,75.465,70.678,76.773,69.671,76.673z
	 M141.207,148.912c-1.107-0.102-2.616-1.609-2.918-2.816c-2.012-6.139-3.723-12.477-5.836-19.721
	c-1.006,1.811-1.71,2.816-2.213,3.822c-2.516,5.334-5.031,10.766-7.345,16.199c-0.805,1.912-2.013,2.414-4.024,2.818
	c-8.25,1.609-13.381-1.209-15.797-9.559c-1.307-4.326-3.923-8.25-6.74-12.275c-1.308,5.031-2.717,10.162-4.024,15.193
	c-2.314,8.451-0.302,6.74-8.753,7.043c-3.521,0.1-7.043,0-10.564,0c-0.201,0-0.503-0.102-1.006-0.303
	c1.61-6.338,3.219-12.678,4.93-19.115c1.61-6.139,3.32-12.377,4.83-18.514c0.503-2.012,1.409-2.816,3.521-2.717
	c4.326,0,8.753,0.102,13.08-0.201c2.716-0.201,4.125,1.006,5.232,3.32c3.42,7.445,7.143,14.791,11.067,23.041
	c2.917-6.34,6.138-11.672,7.948-17.406c2.414-7.949,7.043-10.363,15.092-9.658c8.553,0.805,8.553,0.201,10.967,8.551
	c3.018,10.465,5.936,20.826,9.256,32.297C151.872,149.113,146.539,149.215,141.207,148.912z M156.601,94.179
	c0-4.226,0-8.149,0-11.973c9.155-2.314,18.11-4.729,27.87-7.244c1.207,5.735,2.515,12.174,3.924,19.116
	C177.527,94.179,167.266,94.179,156.601,94.179z"/>
</svg>
