<?xml version="1.0" encoding="utf-8"?>
<!-- Generator: Adobe Illustrator 21.0.0, SVG Export Plug-In . SVG Version: 6.00 Build 0)  -->
<svg version="1.1" id="图层_1" xmlns="http://www.w3.org/2000/svg" xmlns:xlink="http://www.w3.org/1999/xlink" x="0px" y="0px"
	 viewBox="0 0 46 46" style="enable-background:new 0 0 46 46;" xml:space="preserve">
<style type="text/css">
	.st0{fill:#555479;}
</style>
<path class="st0" d="M39.1,0H6.9C3.1,0,0,3.1,0,6.9v32.2C0,42.9,3.1,46,6.9,46h32.2c3.8,0,6.9-3.1,6.9-6.9V6.9C46,3.1,42.9,0,39.1,0
	z M11.9,8.4h22.1c0.8,0,1.5,0.7,1.5,1.5s-0.7,1.5-1.5,1.5H11.9c-0.8,0-1.5-0.7-1.5-1.5C10.4,9.1,11.1,8.4,11.9,8.4z M36.1,36.1
	c0,0.8-0.7,1.5-1.5,1.5H11.4c-0.8,0-1.5-0.7-1.5-1.5V25.9c0.3,0.1,0.7,0.1,1,0.1c0.2,0,0.3,0,0.5,0v0c0.1,0,0.3,0,0.4-0.1
	c0,0,0.1,0,0.1,0c0.1,0,0.1,0,0.2,0c0.3-0.1,0.5-0.1,0.8-0.2v7.4h20.1v-7.4c0.3,0.1,0.5,0.2,0.8,0.2c0.1,0,0.1,0,0.2,0
	c0,0,0.1,0,0.1,0c0.1,0,0.3,0,0.4,0.1v0l0,0c0.2,0,0.3,0,0.5,0c0.3,0,0.7,0,1-0.1L36.1,36.1z M35.1,24.5c-2.2,0-4-1.8-4-4
	c0,2.2-1.8,4-4,4s-4-1.8-4-4c0,2.2-1.8,4-4,4c-2.2,0-4-1.8-4-4c0,2.2-1.8,4-4,4c-2.2,0-4-1.8-4-4l2.8-7.5h26.5h0h0l2.8,7.5
	C39.1,22.7,37.3,24.5,35.1,24.5z"/>
</svg>
