<?xml version="1.0" encoding="utf-8"?>
<!-- Generator: Adobe Illustrator 16.0.0, SVG Export Plug-In . SVG Version: 6.00 Build 0)  -->
<!DOCTYPE svg PUBLIC "-//W3C//DTD SVG 1.1//EN" "http://www.w3.org/Graphics/SVG/1.1/DTD/svg11.dtd">
<svg version="1.1" id="图层_1" xmlns="http://www.w3.org/2000/svg" xmlns:xlink="http://www.w3.org/1999/xlink" x="0px" y="0px"
	 width="128px" height="128px" viewBox="0 0 128 128" enable-background="new 0 0 128 128" xml:space="preserve">
<path fill="#555479" d="M127.818,63.911c0-4.02-7.768-7.225-8.521-11.022c-0.772-3.915,5.165-9.843,3.67-13.445
	c-1.52-3.663-9.922-3.646-12.104-6.904c-1.34-2.003-0.668-5.674-0.57-8.863c-2.882,2.917-6.582,7.379-11.126,14.232
	c-8.649,13.045-19.851,32.632-27.521,46.616c-3.912,7.138-11.389,10.756-14.734,11.43C46.386,55.051,33.905,58.66,33.905,58.66
	c20.15-21.203,29.474,9.324,30.076,8.873c5.567-7.342,20.824-29.884,30.675-37.745c6.027-4.808,11.349-7.63,15.382-9.284
	c-0.185-0.703-0.472-1.318-0.938-1.786c-2.781-2.781-10.539,0.433-13.82-1.765C92.021,14.774,92.04,6.369,88.375,4.85
	c-3.604-1.495-9.527,4.442-13.443,3.667C71.134,7.769,67.927,0,63.907,0c-4.018,0-7.224,7.77-11.023,8.52
	c-3.914,0.775-9.837-5.162-13.44-3.667c-3.663,1.517-3.646,9.923-6.904,12.103c-3.279,2.197-11.038-1.018-13.821,1.765
	c-2.783,2.781,0.433,10.539-1.765,13.82C14.775,35.796,6.37,35.78,4.852,39.444c-1.495,3.602,4.444,9.528,3.669,13.443
	C7.77,56.686,0,59.891,0,63.911c0,4.019,7.77,7.225,8.521,11.022c0.775,3.914-5.163,9.838-3.669,13.438
	c1.519,3.662,9.923,3.647,12.102,6.907c2.197,3.279-1.017,11.037,1.764,13.816c2.781,2.783,10.538-0.43,13.819,1.769
	c3.257,2.18,3.241,10.584,6.905,12.104c3.602,1.494,9.529-4.442,13.443-3.669c3.799,0.752,7.005,8.521,11.023,8.521
	c4.02,0,7.227-7.77,11.023-8.521c3.911-0.773,9.836,5.163,13.439,3.67c3.66-1.519,3.648-9.923,6.904-12.104
	c3.281-2.196,11.037,1.019,13.82-1.766c2.782-2.779-0.434-10.541,1.766-13.82c2.182-3.258,10.584-3.239,12.104-6.906
	c1.494-3.602-4.44-9.525-3.668-13.439C120.051,71.137,127.818,67.93,127.818,63.911L127.818,63.911z"/>
</svg>
